<?xml version="1.0" encoding="utf-8"?>
<!-- Generator: Adobe Illustrator 26.1.0, SVG Export Plug-In . SVG Version: 6.00 Build 0)  -->
<svg version="1.1" xmlns="http://www.w3.org/2000/svg" xmlns:xlink="http://www.w3.org/1999/xlink" x="0px" y="0px"
	 viewBox="0 0 75 50" style="enable-background:new 0 0 75 50;" xml:space="preserve">
<style type="text/css">
	.st0{fill:#FFFFFF;}
	.st1{fill:#010101;}
	.st2{fill:#DB1212;}
</style>
<g id="Calque_2">
</g>
<g id="Layer_1">
	<g>
		<g>
			<path class="st0" d="M29.8,38.4C29.8,38.4,29.8,38.4,29.8,38.4C29.8,38.4,29.8,38.4,29.8,38.4z"/>
			<path class="st0" d="M18.1,39.5c-0.1,0-0.2-0.1-0.4-0.1C17.8,39.4,17.9,39.4,18.1,39.5z"/>
			<path class="st0" d="M14.7,37.5c-0.1-0.1-0.2-0.2-0.3-0.3C14.4,37.4,14.6,37.4,14.7,37.5z"/>
			<path class="st0" d="M32,36.8c0,0-0.1,0.1-0.1,0.1C31.9,36.8,32,36.8,32,36.8z"/>
			<path class="st0" d="M16.9,38.9c-0.1,0-0.2-0.1-0.3-0.1C16.7,38.8,16.8,38.9,16.9,38.9z"/>
			<path class="st0" d="M19.3,39.9c-0.1,0-0.1,0-0.2,0C19.2,39.9,19.3,39.9,19.3,39.9z"/>
			<path class="st0" d="M27.5,39.5c-0.1,0-0.1,0-0.2,0.1C27.4,39.6,27.4,39.5,27.5,39.5z"/>
			<path class="st0" d="M28.7,39c-0.1,0-0.1,0.1-0.2,0.1C28.6,39.1,28.6,39,28.7,39z"/>
			<path class="st0" d="M24.9,40.2c-0.1,0-0.2,0-0.3,0C24.6,40.2,24.8,40.2,24.9,40.2z"/>
			<path class="st0" d="M26.1,40c0,0-0.1,0-0.1,0C26,40,26.1,40,26.1,40z"/>
			<path class="st0" d="M20.7,40.2c-0.1,0-0.2,0-0.3-0.1C20.5,40.1,20.6,40.2,20.7,40.2z"/>
			<path class="st0" d="M23.6,40.3c-0.1,0-0.2,0-0.3,0C23.3,40.3,23.5,40.3,23.6,40.3z"/>
			<path class="st0" d="M15.7,38.2c-0.1-0.1-0.2-0.2-0.4-0.2C15.4,38.1,15.5,38.2,15.7,38.2z"/>
			<path class="st0" d="M11.2,33.5c-0.1-0.2-0.2-0.3-0.3-0.5C11,33.2,11.1,33.4,11.2,33.5z"/>
			<path class="st0" d="M32.5,15.7c-0.1-0.1-0.1-0.1-0.2-0.2c0.2,0.2,0.3,0.3,0.5,0.5l0,0C32.7,15.9,32.6,15.8,32.5,15.7z"/>
			<path class="st0" d="M34.5,33.7C34.5,33.7,34.5,33.7,34.5,33.7C34.5,33.7,34.5,33.7,34.5,33.7z"/>
			<path class="st0" d="M32.8,16L9.2,26.6c0-0.5,0-1,0-1.5c0-0.6,0.1-1.1,0.2-1.7c-0.1,0.6-0.2,1.1-0.2,1.7
				c-0.2,2.6,0.3,5.1,1.4,7.3c0-0.1-0.1-0.2-0.1-0.2h24.9c0.7-1.6,1.2-3.3,1.3-5.1C37,22.7,35.4,18.8,32.8,16z"/>
			<path class="st0" d="M11.8,34.5c-0.1-0.1-0.2-0.3-0.3-0.4C11.6,34.2,11.7,34.4,11.8,34.5z"/>
			<path class="st0" d="M35.2,32.5C35.2,32.5,35.2,32.5,35.2,32.5C35.2,32.5,35.2,32.5,35.2,32.5z"/>
			<path class="st0" d="M32.9,35.8C32.9,35.9,32.9,35.9,32.9,35.8C32.9,35.9,32.9,35.9,32.9,35.8z"/>
			<path class="st0" d="M12.7,35.7c-0.1-0.1-0.2-0.2-0.3-0.4C12.5,35.5,12.6,35.6,12.7,35.7z"/>
			<path class="st0" d="M13.6,36.6c-0.1-0.1-0.2-0.2-0.3-0.3C13.3,36.3,13.4,36.5,13.6,36.6z"/>
			<path class="st0" d="M27.3,39.6c-0.4,0.1-0.8,0.3-1.2,0.4C26.5,39.9,26.9,39.7,27.3,39.6z"/>
			<path class="st0" d="M28.5,39.1c-0.3,0.2-0.7,0.3-1,0.4C27.8,39.4,28.2,39.3,28.5,39.1z"/>
			<path class="st0" d="M29.7,38.4c-0.3,0.2-0.7,0.4-1,0.6C29.1,38.8,29.4,38.6,29.7,38.4z"/>
			<path class="st0" d="M35.4,32.1L35.4,32.1c-0.1,0.1-0.1,0.2-0.2,0.4C35.3,32.3,35.3,32.2,35.4,32.1z"/>
			<path class="st0" d="M34.5,33.7c-0.5,0.8-1,1.5-1.6,2.2C33.5,35.2,34.1,34.5,34.5,33.7z"/>
			<path class="st0" d="M35.2,32.5c-0.2,0.4-0.4,0.8-0.7,1.2C34.8,33.3,35,32.9,35.2,32.5z"/>
			<path class="st0" d="M31.9,36.8c-0.6,0.6-1.3,1.1-2.1,1.6C30.5,38,31.2,37.4,31.9,36.8z"/>
			<path class="st0" d="M32.9,35.9c-0.3,0.3-0.6,0.6-0.9,0.9C32.3,36.5,32.6,36.2,32.9,35.9z"/>
			<path class="st0" d="M12.4,35.3c-0.2-0.3-0.4-0.5-0.6-0.8C12,34.8,12.2,35.1,12.4,35.3z"/>
			<path class="st0" d="M13.2,36.2c-0.2-0.2-0.3-0.3-0.5-0.5C12.9,35.9,13.1,36.1,13.2,36.2z"/>
			<path class="st0" d="M14.3,37.3c-0.3-0.2-0.5-0.5-0.8-0.7C13.8,36.8,14.1,37,14.3,37.3z"/>
			<path class="st0" d="M11.5,34.1c-0.1-0.2-0.2-0.4-0.3-0.5C11.3,33.7,11.4,33.9,11.5,34.1z"/>
			<path class="st0" d="M20.7,40.2c0.4,0.1,0.8,0.1,1.2,0.2c0.4,0,0.9,0,1.3,0c-0.4,0-0.9,0-1.3,0C21.5,40.3,21.1,40.2,20.7,40.2z"
				/>
			<path class="st0" d="M10.9,33c-0.1-0.2-0.2-0.5-0.3-0.7C10.7,32.6,10.8,32.8,10.9,33z"/>
			<path class="st0" d="M16.6,38.8c-0.3-0.2-0.6-0.4-0.9-0.6C16,38.4,16.3,38.6,16.6,38.8z"/>
			<path class="st0" d="M15.3,38c-0.2-0.1-0.4-0.3-0.6-0.5C14.9,37.7,15.1,37.8,15.3,38z"/>
			<path class="st0" d="M24.5,40.2c-0.3,0-0.6,0.1-1,0.1C23.9,40.3,24.2,40.3,24.5,40.2z"/>
			<path class="st0" d="M19.2,39.8c-0.4-0.1-0.7-0.2-1.1-0.4C18.4,39.6,18.8,39.7,19.2,39.8z"/>
			<path class="st0" d="M20.4,40.1c-0.3-0.1-0.7-0.1-1-0.2C19.7,40,20,40.1,20.4,40.1z"/>
			<path class="st0" d="M26,40c-0.4,0.1-0.7,0.2-1.1,0.2C25.2,40.1,25.6,40.1,26,40z"/>
			<path class="st0" d="M17.7,39.3c-0.3-0.1-0.5-0.2-0.8-0.4C17.2,39.1,17.4,39.2,17.7,39.3z"/>
		</g>
		<path class="st1" d="M22.9,40.6c-0.3,0-0.6,0-1,0c-5.1-0.3-9.5-3.5-11.7-8.4l-0.1-0.3h25.5l-0.1,0.3
			C33.2,37.3,28.3,40.6,22.9,40.6z M10.7,32.3c2.1,4.5,6.4,7.5,11.2,7.8c5.5,0.4,10.6-2.7,13.1-7.8H10.7z"/>
	</g>
	<path d="M33.4,46.8l-0.2-0.3c5.7-4.7,10.9,0,10.9,0l-0.3,0.3c0,0-1.3-1.2-3.2-1.7C38.1,44.3,35.7,44.9,33.4,46.8z"/>
	<g>
		<g>
			<path class="st2" d="M54.5,40.3c-0.1,0-0.3,0-0.4,0C54.3,40.4,54.4,40.3,54.5,40.3z"/>
			<path class="st0" d="M67.7,26.6L44.2,16c-2.2,2.4-3.7,5.5-3.9,9.1C39.7,33,45.4,39.8,53,40.3c0.2,0,0.4,0,0.6,0
				c-5.3-0.2-9.8-3.5-12-8.2h24.9c0.7-1.6,1.2-3.3,1.3-5.1C67.7,26.8,67.7,26.7,67.7,26.6z"/>
			<path class="st2" d="M54.1,40.4c-0.2,0-0.4,0-0.6,0C53.7,40.4,53.9,40.4,54.1,40.4z"/>
			<path class="st2" d="M54.5,40.3c0.1,0,0.3,0,0.4,0c5.2-0.4,9.5-3.7,11.5-8.2h-0.1C64.2,36.8,59.7,40.1,54.5,40.3z"/>
		</g>
		<path class="st1" d="M54,40.6c-5.4,0-10.3-3.2-12.7-8.4l-0.1-0.3h25.5l-0.1,0.3c-2.1,4.8-6.6,8-11.7,8.3
			C54.6,40.5,54.3,40.6,54,40.6z M41.8,32.3c2.5,5.2,7.6,8.2,13.1,7.8c4.8-0.3,9.1-3.3,11.2-7.8H41.8z"/>
	</g>
	<path class="st1" d="M53.9,40.6c-0.3,0-0.6,0-1,0C45.3,40,39.5,33.1,40,25.1S47.3,11,55,11.5c3.7,0.3,7.1,2,9.6,4.9
		s3.6,6.7,3.4,10.5c-0.3,3.9-2,7.4-4.8,10C60.5,39.3,57.3,40.6,53.9,40.6z M54,11.9c-7.1,0-13.1,5.7-13.6,13.2
		c-0.5,7.8,5.1,14.5,12.6,15.1c3.6,0.2,7.1-1,9.9-3.5c2.7-2.5,4.4-5.9,4.7-9.7l0.2,0l-0.2,0c0.3-3.8-0.9-7.4-3.3-10.3
		c-2.4-2.8-5.7-4.5-9.3-4.8C54.6,11.9,54.3,11.9,54,11.9z"/>
	<g>
		<path d="M22.5,6.1C17.9,6.1,13,5,13,3.2s4.8-2.9,9.5-2.9s9.5,1.1,9.5,2.9S27.2,6.1,22.5,6.1z M22.5,0.7c-5.5,0-9.1,1.3-9.1,2.5
			s3.7,2.5,9.1,2.5s9.1-1.3,9.1-2.5S28,0.7,22.5,0.7z"/>
	</g>
	<g>
		<path d="M53.9,6.1c-4.7,0-9.5-1.1-9.5-2.9s4.8-2.9,9.5-2.9s9.5,1.1,9.5,2.9S58.6,6.1,53.9,6.1z M53.9,0.7c-5.5,0-9.1,1.3-9.1,2.5
			s3.7,2.5,9.1,2.5s9.1-1.3,9.1-2.5S59.4,0.7,53.9,0.7z"/>
	</g>
	<g>
		<g>
			<path class="st0" d="M16,13.7c0.1,0,0.2-0.1,0.2-0.1C16.2,13.6,16.1,13.6,16,13.7z"/>
			<path class="st0" d="M18.4,12.5c0.1,0,0.1,0,0.2-0.1C18.6,12.4,18.5,12.5,18.4,12.5z"/>
			<path class="st0" d="M25.3,11.9c0.5,0.1,0.9,0.2,1.3,0.3C26.2,12.1,25.8,12,25.3,11.9z"/>
			<path class="st0" d="M19.6,12.1c0.1,0,0.2-0.1,0.3-0.1C19.8,12.1,19.7,12.1,19.6,12.1z"/>
			<path class="st0" d="M21.1,11.8c0.1,0,0.1,0,0.2,0C21.2,11.8,21.2,11.8,21.1,11.8z"/>
			<path class="st0" d="M22.3,11.7c0.1,0,0.2,0,0.3,0C22.6,11.7,22.5,11.7,22.3,11.7z"/>
			<path class="st0" d="M17.1,13.1c0.1,0,0.2-0.1,0.3-0.1C17.3,13,17.2,13,17.1,13.1z"/>
			<path class="st0" d="M10,21.3c0.1-0.4,0.3-0.8,0.4-1.1C10.3,20.5,10.1,20.9,10,21.3z"/>
			<path class="st0" d="M9.5,23c0.1-0.4,0.2-0.8,0.3-1.2C9.7,22.2,9.6,22.6,9.5,23z"/>
			<path class="st0" d="M12,17.4c0.1-0.1,0.1-0.2,0.2-0.3C12.2,17.2,12.1,17.3,12,17.4z"/>
			<path class="st0" d="M14.8,14.5c0.1,0,0.1-0.1,0.2-0.1C15,14.4,14.9,14.4,14.8,14.5z"/>
			<path class="st0" d="M12.9,16.3c0,0,0.1-0.1,0.1-0.1C13,16.2,12.9,16.2,12.9,16.3z"/>
			<path class="st0" d="M13.8,15.3c0.1-0.1,0.2-0.1,0.2-0.2C14,15.2,13.9,15.3,13.8,15.3z"/>
			<path class="st0" d="M10.6,19.8c0.2-0.5,0.5-1,0.8-1.4C11.1,18.8,10.8,19.3,10.6,19.8z"/>
			<path class="st0" d="M30.5,14c-0.3-0.2-0.5-0.3-0.8-0.5c0.2,0.1,0.3,0.2,0.5,0.3C30.3,13.9,30.4,14,30.5,14z"/>
			<path class="st0" d="M28.2,12.7c0.3,0.1,0.6,0.3,0.9,0.4c-0.6-0.3-1.3-0.6-2-0.8c0.3,0.1,0.5,0.2,0.8,0.3
				C28,12.7,28.1,12.7,28.2,12.7z"/>
			<path class="st0" d="M29.1,13.2c0.1,0.1,0.2,0.1,0.3,0.2C29.3,13.3,29.2,13.2,29.1,13.2z"/>
			<path class="st0" d="M26.6,12.2c0.1,0,0.1,0,0.2,0.1C26.8,12.2,26.7,12.2,26.6,12.2z"/>
			<path class="st0" d="M31.9,15.1c-0.2-0.2-0.4-0.4-0.6-0.5c0.1,0.1,0.2,0.1,0.3,0.2C31.7,14.9,31.8,15,31.9,15.1z"/>
			<path class="st0" d="M14.1,15.1c0.2-0.2,0.5-0.4,0.8-0.6C14.6,14.7,14.3,14.9,14.1,15.1z"/>
			<path class="st0" d="M13,16.2c0.3-0.3,0.6-0.6,0.8-0.8C13.5,15.6,13.3,15.9,13,16.2z"/>
			<path class="st0" d="M32.3,15.5c-0.1-0.1-0.3-0.2-0.4-0.4C32,15.2,32.2,15.3,32.3,15.5C32.3,15.5,32.3,15.5,32.3,15.5z"/>
			<path class="st0" d="M9.4,23.4c0-0.1,0.1-0.3,0.1-0.4C9.5,23.1,9.5,23.2,9.4,23.4z"/>
			<path class="st0" d="M9.8,21.8c0-0.2,0.1-0.3,0.1-0.5C9.9,21.4,9.9,21.6,9.8,21.8z"/>
			<path class="st0" d="M12.2,17.1c0.2-0.3,0.4-0.6,0.7-0.8C12.7,16.6,12.4,16.8,12.2,17.1z"/>
			<path class="st0" d="M11.3,18.4C11.3,18.4,11.3,18.4,11.3,18.4c0.2-0.3,0.4-0.7,0.7-1C11.8,17.7,11.6,18,11.3,18.4z"/>
			<path class="st0" d="M10.4,20.2c0.1-0.1,0.1-0.3,0.2-0.4C10.5,19.9,10.5,20,10.4,20.2z"/>
			<path class="st0" d="M15,14.3c0.3-0.2,0.6-0.5,1-0.7C15.7,13.9,15.3,14.1,15,14.3z"/>
			<path class="st0" d="M19.9,12.1c0.4-0.1,0.8-0.2,1.2-0.2C20.7,11.9,20.3,12,19.9,12.1z"/>
			<path class="st0" d="M31.3,14.6c-0.3-0.2-0.5-0.4-0.8-0.6c0,0,0,0,0,0C30.8,14.2,31,14.4,31.3,14.6
				C31.3,14.6,31.3,14.6,31.3,14.6z"/>
			<path class="st0" d="M26.8,12.2L26.8,12.2c0.1,0,0.2,0.1,0.3,0.1C27,12.3,26.9,12.3,26.8,12.2z"/>
			<path class="st0" d="M21.3,11.8c0.4,0,0.7-0.1,1.1-0.1C22,11.7,21.6,11.8,21.3,11.8z"/>
			<polygon class="st0" points="26.6,12.2 26.6,12.2 26.6,12.2 			"/>
			<path class="st0" d="M22.7,11.7c0.4,0,0.8,0,1.3,0C23.5,11.7,23.1,11.7,22.7,11.7z"/>
			<path class="st0" d="M18.7,12.4c0.3-0.1,0.6-0.2,1-0.3C19.3,12.2,19,12.3,18.7,12.4z"/>
			<path class="st0" d="M16.2,13.5c0.3-0.2,0.6-0.3,0.9-0.5C16.8,13.2,16.5,13.4,16.2,13.5z"/>
			<path class="st0" d="M29.1,13.2C29.1,13.2,29.1,13.1,29.1,13.2C29.1,13.1,29.1,13.2,29.1,13.2L29.1,13.2z"/>
			<path class="st0" d="M23.9,11.7c0.5,0,0.9,0.1,1.4,0.2C24.9,11.8,24.4,11.8,23.9,11.7z"/>
			<path class="st0" d="M29.4,13.3C29.4,13.3,29.4,13.3,29.4,13.3c0.1,0.1,0.2,0.1,0.4,0.2C29.6,13.5,29.5,13.4,29.4,13.3z"/>
			<path class="st0" d="M17.4,13c0.4-0.2,0.7-0.3,1.1-0.5C18.1,12.6,17.7,12.8,17.4,13z"/>
		</g>
		<path class="st1" d="M33.5,16.5c-0.1-0.1-0.2-0.3-0.4-0.4l0,0L33,15.8c0,0-0.1-0.1-0.1-0.1c-0.2-0.2-0.4-0.4-0.7-0.7
			c-0.1-0.1-0.2-0.2-0.3-0.2c-0.2-0.2-0.5-0.4-0.8-0.6C31,14.1,31,14.1,30.9,14c-0.3-0.2-0.6-0.4-0.9-0.6c-0.1,0-0.1-0.1-0.2-0.1
			c-0.3-0.2-0.6-0.4-0.9-0.5c-0.1,0-0.1-0.1-0.2-0.1c-0.3-0.2-0.7-0.3-1-0.4c-0.1,0-0.2,0-0.2-0.1c-0.3-0.1-0.7-0.2-1-0.3
			c-0.1,0-0.2-0.1-0.4-0.1c-0.3-0.1-0.6-0.1-0.9-0.2c-0.3,0-0.6-0.1-0.9-0.1c-0.1,0-0.3,0-0.4,0c-0.5,0-1,0-1.4,0
			c-7.1,0.3-13,6.1-13.5,13.6c0,0.5,0,1,0,1.5l0,0.3l0,0c0.4,7.2,5.8,13.2,12.9,13.7c0.3,0,0.6,0,1,0c3.4,0,6.6-1.3,9.2-3.6
			c2.8-2.6,4.5-6.1,4.8-10C37.1,23.1,35.9,19.4,33.5,16.5z M9.4,25.1c0.5-7.5,6.5-13.2,13.6-13.2c0.3,0,0.6,0,0.9,0
			c0.8,0.1,1.5,0.2,2.2,0.4c0.1,0,0.1,0,0.2,0c0.3,0.1,0.7,0.2,1,0.3c0.1,0,0.1,0,0.2,0.1c0.3,0.1,0.6,0.3,1,0.4
			c0.1,0,0.1,0,0.2,0.1c0.3,0.2,0.6,0.3,0.9,0.5c0,0,0.1,0,0.1,0.1c0.3,0.2,0.6,0.4,0.9,0.6c0,0,0.1,0,0.1,0.1
			c0.3,0.2,0.6,0.5,0.9,0.7c0,0,0,0,0,0c0.3,0.3,0.6,0.5,0.9,0.8L9.4,26.3C9.4,25.9,9.4,25.5,9.4,25.1z M31.8,36.7
			c-2.8,2.5-6.2,3.7-9.9,3.5c-7-0.5-12.3-6.4-12.6-13.5l23.4-10.5c0.2,0.2,0.3,0.3,0.5,0.5c2.4,2.8,3.5,6.5,3.3,10.3
			C36.2,30.7,34.6,34.2,31.8,36.7z"/>
	</g>
	<path d="M30.4,31.9c1.3-1.6,2.1-3.7,2.1-6c0-3.2-1.5-6-4-7.8L13.2,25c0,0.3,0,0.6,0,0.9c0,2.3,0.8,4.4,2.1,6H30.4z"/>
	<g>
		<g>
			<path class="st2" d="M67.7,25.2c0,0.2,0,0.5,0,0.7C67.7,25.7,67.7,25.4,67.7,25.2z"/>
			<path class="st2" d="M53.5,11.7C53.5,11.7,53.5,11.7,53.5,11.7C53.5,11.7,53.5,11.7,53.5,11.7z"/>
			<path class="st2" d="M54.9,11.7c-0.1,0-0.1,0-0.2,0c0.2,0,0.4,0,0.6,0.1C55.2,11.8,55.1,11.7,54.9,11.7z"/>
			<path class="st2" d="M67.7,24.9c-0.5-6.6-5.3-12.1-11.7-13C62.1,12.8,67.1,18.1,67.7,24.9z"/>
			<path class="st2" d="M53.6,11.7c0.4,0,0.8,0,1.2,0C54.4,11.7,54,11.7,53.6,11.7z"/>
			<path class="st2" d="M67.7,26.6c0-0.2,0-0.4,0-0.6C67.7,26.1,67.7,26.4,67.7,26.6L67.7,26.6z"/>
			<path class="st2" d="M53,11.7c-3.5,0.2-6.6,1.8-8.9,4.3l0.1,0c2.4-2.6,5.7-4.2,9.4-4.3C53.3,11.7,53.1,11.7,53,11.7z"/>
			<path class="st2" d="M55.3,11.8c0.2,0,0.4,0,0.6,0.1C55.7,11.8,55.5,11.8,55.3,11.8z"/>
			<path class="st2" d="M67.7,25.1c0-0.1,0-0.1,0-0.2c0,0.1,0,0.2,0,0.3C67.7,25.2,67.7,25.1,67.7,25.1z"/>
		</g>
		<path class="st1" d="M67.9,26.8L43.8,16.1l0.3-0.4c2.4-2.6,5.3-4,8.8-4.3C60.6,10.9,67.3,17,67.8,25c0,0.5,0,1,0,1.5L67.9,26.8z
			 M44.4,15.8l23.1,10.4c0-0.4,0-0.8,0-1.2c-0.5-7.8-7-13.7-14.5-13.2l0,0C49.7,12.1,46.7,13.5,44.4,15.8z"/>
	</g>
	<path d="M61.7,31.9c1.3-1.6,2.1-3.7,2.1-6c0-0.3,0-0.6,0-0.9l-15.4-6.9c-2.4,1.8-4,4.6-4,7.8c0,2.3,0.8,4.4,2.1,6L61.7,31.9
		L61.7,31.9z"/>
	<path d="M47.5,49.1c-1.5,0-2.7-0.6-3.4-1.8c-0.6-1.1-0.7-2.4-0.1-3.4c0.6-1.1,1.8-1.7,3.4-1.7v0.4c-1.4,0-2.5,0.5-3,1.5
		c-0.5,0.9-0.5,2.1,0.1,3c0.6,1,1.8,1.6,3.2,1.6l0,0.4C47.6,49.1,47.6,49.1,47.5,49.1z"/>
	<path d="M29.6,49.5c0,0-0.1,0-0.1,0l0-0.4c1.4,0,2.6-0.5,3.2-1.6c0.6-0.9,0.6-2.1,0.1-3c-0.6-1-1.6-1.5-3-1.5v-0.4
		c1.5,0,2.8,0.6,3.4,1.7c0.6,1,0.6,2.3-0.1,3.4C32.3,48.8,31.1,49.5,29.6,49.5z"/>
</g>
</svg>
