<svg version="1.1" id="Calque_1" xmlns="http://www.w3.org/2000/svg" x="0" y="0" viewBox="0 0 144 144" style="enable-background:new 0 0 144 144" xml:space="preserve"><style>.st0{fill:#f5be25}.st1{fill:#1c203e}.st2{fill:#fff}.st3,.st4{fill:none;stroke:#1c203e;stroke-width:.75;stroke-miterlimit:10}.st4{stroke-linecap:round}</style><path class="st0" d="M83.66 38.49c-1.32 0-3.03-.24-3.62-1.36-.64-1.21.21-3.23 2.33-5.53 2.25-2.43 5.64-4.91 9.55-6.99 4.93-2.61 9.94-4.17 13.41-4.17 1.32 0 3.03.24 3.62 1.36 1.39 2.63-4.05 8.36-11.89 12.52-4.93 2.61-9.94 4.17-13.4 4.17z"/><path class="st1" d="M105.33 20.81c1.73 0 2.9.41 3.29 1.16.56 1.05-.29 2.96-2.28 5.1-2.22 2.4-5.58 4.85-9.45 6.91-4.88 2.59-9.83 4.13-13.23 4.13-1.73 0-2.9-.41-3.29-1.16-.56-1.05.29-2.96 2.28-5.1 2.22-2.4 5.58-4.85 9.45-6.91 4.87-2.58 9.82-4.13 13.23-4.13m0-.75c-3.39 0-8.42 1.48-13.58 4.22-8.17 4.33-13.56 10.16-12.04 13.03.56 1.05 1.98 1.56 3.95 1.56 3.39 0 8.42-1.48 13.58-4.22 8.17-4.33 13.56-10.16 12.04-13.03-.56-1.05-1.98-1.56-3.95-1.56z"/><path class="st0" d="M59.83 38.49c-3.47 0-8.48-1.56-13.41-4.18-7.84-4.16-13.28-9.89-11.89-12.52.6-1.12 2.3-1.36 3.62-1.36 3.47 0 8.48 1.56 13.41 4.17 7.84 4.16 13.28 9.89 11.89 12.52-.59 1.13-2.3 1.37-3.62 1.37z"/><path class="st1" d="M38.16 20.06v.75c3.41 0 8.35 1.54 13.23 4.13 3.88 2.06 7.24 4.51 9.45 6.91 1.98 2.14 2.83 4.05 2.28 5.1-.4.75-1.57 1.16-3.29 1.16-3.41 0-8.35-1.54-13.23-4.13-3.88-2.06-7.24-4.51-9.45-6.91-1.98-2.14-2.83-4.05-2.28-5.1.4-.75 1.57-1.16 3.29-1.16v-.75m0 0c-1.98 0-3.4.5-3.95 1.56-1.52 2.86 3.87 8.69 12.04 13.03 5.16 2.74 10.19 4.22 13.58 4.22 1.98 0 3.4-.5 3.95-1.56 1.52-2.86-3.87-8.69-12.04-13.03-5.15-2.74-10.19-4.22-13.58-4.22z"/><path class="st0" d="M135.84 71.2c-.29-15.5-13.7-27.99-30.21-27.99S75.71 55.7 75.42 71.2h60.42zM68.06 71.2c-.29-15.5-13.7-27.99-30.21-27.99S7.93 55.7 7.64 71.2h60.42z"/><path class="st2" d="M7.44 71.02c.29 18.18 10.15 32.82 30.39 32.82 19.26 0 30.1-14.64 30.39-32.82H7.44zM75.35 71.02c.29 18.18 10.15 32.82 30.39 32.82 19.26 0 30.1-14.64 30.39-32.82H75.35z"/><path class="st1" d="M37.82 43.7c16.55 0 30.01 13.46 30.01 30.01s-13.46 30.01-30.01 30.01S7.81 90.26 7.81 73.71 21.27 43.7 37.82 43.7m0-.75c-16.99 0-30.76 13.77-30.76 30.76s13.77 30.76 30.76 30.76S68.58 90.7 68.58 73.71 54.81 42.95 37.82 42.95zM105.67 43.7c16.55 0 30.01 13.46 30.01 30.01s-13.46 30.01-30.01 30.01-30.02-13.46-30.02-30.01S89.12 43.7 105.67 43.7m0-.75c-16.99 0-30.76 13.77-30.76 30.76s13.77 30.76 30.76 30.76 30.76-13.77 30.76-30.76-13.78-30.76-30.76-30.76z"/><path class="st3" d="M7.36 70.8h60.67M75.67 70.8h60.13"/><path class="st1" d="M23.75 71.07c.21 12.13 10.1 21.89 22.28 21.89 12.18 0 22.07-9.76 22.28-21.89H23.75zM75.18 71.07c.21 12.13 10.1 21.89 22.28 21.89 12.18 0 22.07-9.76 22.28-21.89H75.18z"/><path class="st4" d="M84.67 110.23c0 7.14-5.79 12.92-12.92 12.92-7.14 0-12.92-5.79-12.92-12.92M78.74 128.46c-2 1.27-4.38 2.01-6.93 2.01-2.6 0-5.03-.77-7.06-2.1"/></svg>