<svg xmlns="http://www.w3.org/2000/svg" width="60.486" height="53.951"><defs><clipPath id="a"><path data-name="Rectangle 4" fill="none" d="M0 0h60.486v53.951H0z"/></clipPath></defs><g data-name="Groupe 3" clip-path="url(#a)"><path data-name="Tracé 17" d="M30.243 50.464a5.551 5.551 0 0 1-5.545-5.545h.574a4.971 4.971 0 1 0 9.942 0h.574a5.551 5.551 0 0 1-5.545 5.545" fill="#121830"/><path data-name="Tracé 18" d="M30.244 53.952a5.486 5.486 0 0 1-2.522-.605l.262-.511a4.98 4.98 0 0 0 4.506.007l.26.512a5.487 5.487 0 0 1-2.505.6" fill="#121830"/><path data-name="Tracé 19" d="M24.053 3.694c0 1.882-4.576 3.407-10.221 3.407S3.611 5.576 3.611 3.694 8.187.287 13.832.287s10.221 1.525 10.221 3.407" fill="#fff"/><path data-name="Tracé 20" d="M13.832 7.388a24.066 24.066 0 0 1-7.318-1.013c-2.057-.686-3.19-1.638-3.19-2.681s1.133-2 3.19-2.681A24.066 24.066 0 0 1 13.832 0a24.065 24.065 0 0 1 7.318 1.013c2.057.686 3.19 1.638 3.19 2.681s-1.133 2-3.19 2.681a24.066 24.066 0 0 1-7.318 1.013m0-6.814c-5.942 0-9.934 1.613-9.934 3.12s3.992 3.12 9.934 3.12 9.934-1.613 9.934-3.12-3.992-3.12-9.934-3.12" fill="#121830"/><path data-name="Tracé 21" d="M56.875 3.694c0 1.882-4.576 3.407-10.221 3.407S36.433 5.576 36.433 3.694 41.009.287 46.654.287s10.221 1.525 10.221 3.407" fill="#fff"/><path data-name="Tracé 22" d="M46.654 7.388a24.067 24.067 0 0 1-7.318-1.013c-2.057-.686-3.19-1.638-3.19-2.681s1.133-2 3.19-2.681a26.952 26.952 0 0 1 14.637 0c2.057.686 3.19 1.638 3.19 2.681s-1.133 2-3.19 2.681a24.067 24.067 0 0 1-7.318 1.013m0-6.814c-5.942 0-9.934 1.613-9.934 3.12s3.992 3.12 9.934 3.12 9.934-1.613 9.934-3.12-3.992-3.12-9.934-3.12" fill="#121830"/><path data-name="Tracé 23" d="M27.378 25.894a13.546 13.546 0 1 1-13.546-13.546 13.546 13.546 0 0 1 13.546 13.546" fill="#fff"/><path data-name="Tracé 24" d="M13.833 39.726a13.833 13.833 0 1 1 13.833-13.833 13.848 13.848 0 0 1-13.833 13.833m0-27.091a13.258 13.258 0 1 0 13.258 13.258 13.273 13.273 0 0 0-13.258-13.258" fill="#121830"/><path data-name="Tracé 25" d="M27.346 27.278a8.82 8.82 0 1 1-8.82-8.82 8.821 8.821 0 0 1 8.82 8.82" fill="#121830"/><path data-name="Tracé 26" d="M27.378 25.894a13.546 13.546 0 1 0-27.091 0Z" fill="#fff"/><path data-name="Tracé 27" d="M27.665 26.181H0v-.287a13.833 13.833 0 0 1 27.665 0ZM.577 25.606h26.511a13.258 13.258 0 0 0-26.511 0" fill="#121830"/><path data-name="Tracé 28" d="M33.108 25.894a13.546 13.546 0 1 0 13.545-13.546 13.546 13.546 0 0 0-13.545 13.546" fill="#fff"/><path data-name="Tracé 29" d="M46.654 39.726a13.833 13.833 0 1 1 13.833-13.833 13.848 13.848 0 0 1-13.833 13.833m0-27.091a13.258 13.258 0 1 0 13.259 13.258 13.274 13.274 0 0 0-13.259-13.258" fill="#121830"/><path data-name="Tracé 30" d="M33.141 27.278a8.82 8.82 0 1 0 8.82-8.82 8.821 8.821 0 0 0-8.82 8.82" fill="#121830"/><path data-name="Tracé 31" d="M33.108 25.894a13.546 13.546 0 1 1 27.091 0Z" fill="#fff"/><path data-name="Tracé 32" d="M60.486 26.181H32.821v-.287a13.833 13.833 0 0 1 27.665 0Zm-27.088-.574h26.511a13.258 13.258 0 0 0-26.511 0" fill="#121830"/></g></svg>