<?xml version="1.0" encoding="utf-8"?>
<!-- Generator: Adobe Illustrator 25.2.3, SVG Export Plug-In . SVG Version: 6.00 Build 0)  -->
<svg version="1.1" id="Layer_1" xmlns="http://www.w3.org/2000/svg" xmlns:xlink="http://www.w3.org/1999/xlink" x="0px" y="0px"
	 viewBox="0 0 75 50" style="enable-background:new 0 0 75 50;" xml:space="preserve">
<style type="text/css">
	.st0{fill:#FFFFFF;}
	.st1{fill:#FFFFFF;stroke:#000000;stroke-miterlimit:10;}
	.st2{fill:#FFFFFF;stroke:#0D0E0E;stroke-miterlimit:10;}
</style>
<path class="st0" d="M38.69,49.68c-0.1,0-0.19,0.01-0.29,0.02c-2.58,0.22-4.65-2.39-4.35-5.35c0.43-4.29,1.25-9.25,2.68-11.5
	c0.42-0.66,0.89-1.06,1.43-1.12c0.62-0.07,1.17,0.35,1.66,1.11c1.35,2.14,2.34,7.01,2.95,11.29C43.17,47.02,41.24,49.58,38.69,49.68
	z"/>
<path class="st0" d="M49.96,0.3C53.57,0.49,51,6.57,64.28,13.72c6.99,3.77-0.99,11.05-9.45,9.86c-7.02-0.99-12.63-5.99-12.37-12.78
	C42.71,4,46.98,0.14,49.96,0.3z"/>
<path class="st0" d="M28.21,0.3c-3.61,0.19-1.04,6.27-14.32,13.42c-6.99,3.77,0.99,11.05,9.45,9.86
	c7.02-0.99,12.63-5.99,12.37-12.78C35.46,4,31.19,0.14,28.21,0.3z"/>
<path class="st1" d="M36.4,35.88"/>
<path class="st1" d="M36.4,29.81"/>
<path class="st1" d="M39.98,35.71"/>
<path class="st1" d="M39.98,29.57"/>
<path class="st2" d="M36.4,38.48"/>
<path class="st0" d="M35.01,27.9l1.71-0.3c1.07-0.19,2.17-0.19,3.24-0.01l1.82,0.31c0,0-0.55-6.84-3.38-6.84S35.01,27.9,35.01,27.9z
	"/>
</svg>
