<?xml version="1.0" encoding="utf-8"?>
<!-- Generator: Adobe Illustrator 26.1.0, SVG Export Plug-In . SVG Version: 6.00 Build 0)  -->
<svg version="1.1" id="Layer_1" xmlns="http://www.w3.org/2000/svg" xmlns:xlink="http://www.w3.org/1999/xlink" x="0px" y="0px"
	 viewBox="0 0 75 50" style="enable-background:new 0 0 75 50;" xml:space="preserve">
<style type="text/css">
	.st0{fill:none;}
	.st1{fill:#010101;}
	.st2{fill:#0D0E0E;}
	.st3{fill:#FFFFFF;}
	.st4{fill:none;stroke:#0D0E0E;stroke-miterlimit:10;}
</style>
<g>
	
		<ellipse transform="matrix(6.919998e-02 -0.9976 0.9976 6.919998e-02 -2.1713 45.576)" class="st0" cx="23.3" cy="24" rx="13.4" ry="12.8"/>
	<path class="st1" d="M23.3,37.5c-0.3,0-0.6,0-0.9,0c-7.1-0.5-12.6-7-12-14.4c0.5-7.4,6.8-13.1,13.9-12.6c3.5,0.2,6.6,1.9,8.9,4.6
		c2.3,2.7,3.4,6.2,3.1,9.8s-1.8,6.9-4.5,9.3C29.5,36.3,26.4,37.5,23.3,37.5z M23.4,10.8c-6.6,0-12.2,5.4-12.7,12.3
		c-0.5,7.2,4.8,13.5,11.7,14c3.4,0.2,6.6-0.9,9.2-3.2c2.6-2.3,4.1-5.5,4.3-9l0.2,0l-0.2,0c0.2-3.5-0.8-6.9-3-9.6s-5.3-4.2-8.6-4.5
		C24,10.8,23.7,10.8,23.4,10.8z"/>
</g>
<g>
	
		<ellipse transform="matrix(6.920106e-02 -0.9976 0.9976 6.920106e-02 25.1496 72.6085)" class="st0" cx="51.5" cy="22.8" rx="13.2" ry="12.6"/>
	<path class="st2" d="M51.4,36.2c-0.3,0-0.6,0-0.9,0c-7-0.5-12.4-6.9-11.9-14.2c0.2-3.6,1.8-6.8,4.4-9.2s5.9-3.5,9.3-3.3
		c3.4,0.2,6.5,1.9,8.8,4.5c2.2,2.7,3.3,6.1,3.1,9.7l0,0c-0.2,3.6-1.8,6.8-4.4,9.2C57.5,35,54.5,36.2,51.4,36.2z M51.5,9.8
		c-3,0-5.9,1.1-8.2,3.2c-2.5,2.3-4,5.5-4.3,8.9c-0.5,7.1,4.7,13.4,11.5,13.8c3.3,0.2,6.5-0.9,9-3.2c2.5-2.3,4-5.5,4.3-8.9l0,0
		c0.2-3.5-0.8-6.8-3-9.4c-2.2-2.6-5.2-4.2-8.5-4.4C52.1,9.8,51.8,9.8,51.5,9.8z"/>
</g>
<g>
	<path class="st3" d="M32.1,39.2c5.4,1.8,10.8-0.4,10.8-0.4c0.2,0.2-0.2,5.8-3.5,7.3c-0.5,0.2-1.1,0.4-1.7,0.4c-0.8,0-1.4-0.1-2-0.4
		C32.5,44.6,31.8,39.2,32.1,39.2z"/>
	<path class="st1" d="M37.5,46.8c-0.7,0-1.3-0.1-1.9-0.4c-3-1.5-3.9-6.4-3.8-7.1c0-0.2,0.2-0.2,0.2-0.2l0.1,0
		c5.3,1.8,10.7-0.3,10.7-0.4l0.1,0l0.1,0.1c0.2,0.2,0,1.6-0.1,1.8c-0.2,1.4-1,4.7-3.5,5.9c-0.5,0.3-1.2,0.4-1.8,0.4
		C37.6,46.8,37.6,46.8,37.5,46.8z M32.2,39.4c0,0.8,0.8,5.2,3.6,6.6c0.6,0.3,1.2,0.4,1.9,0.4c0.6,0,1.1-0.2,1.6-0.4
		c2.8-1.4,3.5-5.9,3.5-6.9C41.7,39.4,37,40.9,32.2,39.4z"/>
</g>
<g>
	<path class="st0" d="M39.8,49.1c-0.5,0.2-1.1,0.4-1.7,0.4c-0.8,0-1.4-0.1-2-0.4"/>
	<path class="st1" d="M37.9,49.7c-0.7,0-1.3-0.1-1.9-0.4l0.2-0.3c0.6,0.3,1.2,0.4,1.9,0.4c0.6,0,1.1-0.2,1.6-0.4l0.2,0.3
		c-0.5,0.3-1.2,0.4-1.8,0.4C38,49.7,37.9,49.7,37.9,49.7z"/>
</g>
<g>
	<path class="st3" d="M33.6,27.5c1-2.3,0.4-4.9-1.3-6.7c-3.9-4-9.9-5.3-15.1-2.9c-0.7,0.3-1.4,0.7-2,1.2c-2.2,1.5-3.1,4.4-2.2,6.9
		c0.1,0.4,0.3,0.7,0.4,1.1c2.7,5.8,9.4,8.4,14.9,5.9C30.8,31.8,32.6,29.8,33.6,27.5z"/>
	<path class="st1" d="M23.9,34.1c-4.3,0-8.6-2.6-10.6-6.9c-0.2-0.4-0.3-0.8-0.5-1.1c-0.9-2.6,0-5.5,2.3-7.1c0.6-0.5,1.3-0.9,2-1.2
		c5.1-2.4,11.2-1.2,15.3,3c1.8,1.9,2.3,4.5,1.3,6.9l0,0c-1.1,2.5-3,4.4-5.4,5.5C26.9,33.8,25.4,34.1,23.9,34.1z M22.6,16.9
		c-1.8,0-3.6,0.4-5.3,1.2c-0.7,0.3-1.4,0.7-2,1.1c-2.1,1.5-3,4.3-2.1,6.7c0.1,0.4,0.3,0.7,0.4,1.1c2.7,5.7,9.2,8.3,14.7,5.8
		c2.3-1.1,4.2-3,5.2-5.4l0,0c0.9-2.1,0.4-4.7-1.3-6.5C29.5,18.3,26.1,16.9,22.6,16.9z"/>
</g>
<g>
	<path class="st3" d="M41.3,27.4c-0.9-2.2-0.4-4.8,1.3-6.5c3.9-4.1,10-5.4,15.2-3c0.8,0.4,1.5,0.8,2.1,1.2c2.1,1.5,3,4.3,2.2,6.7
		c-0.1,0.4-0.3,0.8-0.5,1.2c-2.7,5.8-9.4,8.4-14.9,5.8C44.2,31.8,42.3,29.8,41.3,27.4z"/>
	<path class="st1" d="M51.1,34.1c-1.5,0-3.1-0.3-4.5-1c-2.4-1.1-4.3-3.1-5.4-5.6l0,0c-1-2.2-0.4-4.9,1.3-6.7
		c4.1-4.2,10.3-5.4,15.4-3c0.7,0.4,1.5,0.8,2.1,1.2c2.2,1.6,3.1,4.4,2.2,7c-0.1,0.4-0.3,0.8-0.5,1.2C59.7,31.5,55.5,34.1,51.1,34.1z
		 M41.5,27.3c1,2.4,2.9,4.4,5.2,5.4c5.4,2.5,12,0,14.7-5.8c0.2-0.4,0.3-0.8,0.5-1.2c0.8-2.4,0-5.1-2.1-6.5c-0.7-0.5-1.3-0.9-2.1-1.2
		c-5-2.3-11-1.1-15,3C41.1,22.7,40.6,25.2,41.5,27.3L41.5,27.3z"/>
</g>
<rect x="35.5" y="39.9" width="0.4" height="6.3"/>
<rect x="39.2" y="39.7" width="0.4" height="6.4"/>
<path class="st4" d="M35.7,48.9"/>
<g>
	<ellipse transform="matrix(0.2441 -0.9698 0.9698 0.2441 13.073 25.0516)" class="st0" cx="22.6" cy="4.1" rx="2.5" ry="8.7"/>
	<path d="M27.7,7.6c-1.7,0-3.8-0.3-5.7-0.8c-2.3-0.6-4.3-1.4-5.8-2.2C14.6,3.6,13.8,2.7,14,2c0.4-1.6,5-1.5,9.3-0.5
		c4.2,1.1,8.4,3.2,8,4.8l0,0C31,7.2,29.6,7.6,27.7,7.6z M17.6,1.1c-1.9,0-3.1,0.4-3.2,1c-0.1,0.6,0.6,1.3,1.9,2.2
		c1.5,0.9,3.5,1.6,5.7,2.2c4.9,1.2,8.6,0.9,8.8-0.2c0.3-1.1-2.8-3.1-7.7-4.3C21,1.3,19,1.1,17.6,1.1z"/>
</g>
<g>
	<ellipse transform="matrix(0.9698 -0.2441 0.2441 0.9698 0.7456 12.8526)" class="st0" cx="52.2" cy="3.4" rx="8.7" ry="2.5"/>
	<path d="M47.2,6.8c-1.9,0-3.3-0.4-3.5-1.2l0,0c-0.4-1.6,3.7-3.7,8-4.8C53.8,0.2,56,0,57.8,0c1.8,0.1,2.9,0.5,3.1,1.2
		C61,2,60.3,2.9,58.7,3.8c-1.5,0.9-3.6,1.7-5.8,2.2C50.9,6.5,48.8,6.8,47.2,6.8z M44,5.5c0.3,1.1,3.9,1.4,8.8,0.2
		c2.2-0.6,4.3-1.3,5.7-2.2c1.4-0.8,2.1-1.6,2-2.2s-1.1-0.9-2.7-1c-1.7-0.1-3.9,0.2-6.1,0.8C46.7,2.4,43.7,4.4,44,5.5L44,5.5z"/>
</g>
<circle class="st1" cx="52.1" cy="25.3" r="5.1"/>
<circle class="st1" cx="23.2" cy="25.3" r="5.1"/>
</svg>
